<?xml version="1.0" standalone="no"?>
<!DOCTYPE svg PUBLIC "-//W3C//DTD SVG 20010904//EN"
 "http://www.w3.org/TR/2001/REC-SVG-20010904/DTD/svg10.dtd">
<svg version="1.0" xmlns="http://www.w3.org/2000/svg"
 width="512.000000pt" height="512.000000pt" viewBox="0 0 512.000000 512.000000"
 preserveAspectRatio="xMidYMid meet">

<g transform="translate(0.000000,512.000000) scale(0.100000,-0.100000)"
fill="#000000" stroke="none">
<path d="M3871 3536 l-194 -194 6 -43 c7 -55 41 -89 95 -96 41 -6 43 -5 132
83 l90 88 -2 -984 -3 -985 -23 -45 c-37 -75 -78 -117 -150 -152 l-67 -33 -278
-5 -279 -5 -24 -28 c-33 -39 -33 -105 0 -144 l24 -28 294 0 c281 0 296 1 361
23 129 45 233 133 297 253 62 117 60 78 60 1146 0 535 4 973 8 973 4 0 37 -30
72 -66 104 -105 148 -118 206 -60 28 28 34 41 34 77 0 42 -2 45 -188 231 -252
252 -212 253 -471 -6z"/>
<path d="M1915 3509 c-578 -84 -1005 -576 -1005 -1159 0 -460 244 -853 655
-1055 327 -161 703 -161 1030 0 411 202 655 595 655 1055 0 651 -529 1176
-1180 1169 -52 -1 -122 -5 -155 -10z m211 -214 c44 -18 64 -63 64 -147 l0 -64
66 -28 c126 -55 221 -180 244 -322 13 -78 4 -119 -32 -149 -42 -35 -98 -34
-138 3 -25 22 -32 38 -37 82 -7 69 -31 118 -77 158 -79 69 -196 68 -276 -4
-56 -50 -73 -94 -68 -170 8 -122 83 -188 230 -204 136 -14 206 -48 291 -139
195 -209 125 -549 -137 -672 l-66 -31 0 -67 c0 -82 -13 -124 -45 -145 -49 -32
-141 -13 -161 32 -4 9 -10 55 -13 101 l-6 83 -53 20 c-74 28 -173 122 -212
202 -16 33 -34 91 -41 128 -19 114 15 168 104 168 55 0 93 -32 101 -84 3 -20
8 -51 11 -70 14 -86 107 -160 205 -160 181 -1 277 214 157 351 -40 45 -99 72
-157 73 -57 0 -147 23 -202 51 -61 31 -150 125 -181 190 -102 217 -9 473 211
575 l62 29 0 63 c0 82 20 129 62 147 42 18 51 18 94 0z"/>
</g>
</svg>
