<?xml version="1.0" standalone="no"?>
<!DOCTYPE svg PUBLIC "-//W3C//DTD SVG 20010904//EN"
 "http://www.w3.org/TR/2001/REC-SVG-20010904/DTD/svg10.dtd">
<svg version="1.0" xmlns="http://www.w3.org/2000/svg"
 width="512.000000pt" height="512.000000pt" viewBox="0 0 512.000000 512.000000"
 preserveAspectRatio="xMidYMid meet">

<g transform="translate(0.000000,512.000000) scale(0.100000,-0.100000)"
fill="#000000" stroke="none">
<path d="M3640 4590 c-707 -242 -1337 -458 -1400 -481 -773 -279 -1429 -980
-1609 -1717 -38 -155 -39 -169 -56 -712 -11 -342 -18 -467 -28 -476 -6 -7 -88
-79 -180 -162 -93 -82 -182 -168 -198 -191 -48 -65 -70 -142 -70 -243 0 -188
74 -309 237 -385 52 -25 70 -28 154 -27 l95 0 395 136 c217 75 586 201 820
281 234 80 873 298 1420 485 547 186 1021 351 1052 366 217 103 367 326 383
569 4 48 -2 165 -13 282 l-19 200 33 46 c52 72 103 188 121 275 14 68 15 107
6 273 l-9 194 47 71 c102 156 127 273 111 533 -6 94 -15 180 -21 191 -9 16 -4
31 25 79 19 32 46 94 60 138 24 73 27 103 36 353 8 212 7 280 -3 303 -12 31
-55 60 -86 58 -10 0 -596 -198 -1303 -439z m1204 118 c-2 -51 -6 -138 -8 -193
-7 -158 -53 -262 -160 -363 -29 -27 -76 -62 -103 -76 -28 -14 -434 -156 -902
-316 -469 -159 -865 -297 -880 -305 -36 -18 -56 -70 -42 -107 11 -30 57 -68
81 -68 10 0 324 104 697 231 1008 343 1206 410 1210 406 11 -11 14 -200 4
-252 -27 -146 -128 -284 -256 -351 -33 -17 -420 -154 -860 -304 -440 -150
-824 -281 -853 -292 -56 -21 -82 -54 -82 -103 0 -36 50 -85 87 -85 16 0 182
52 369 116 186 64 438 150 559 191 121 41 369 125 550 187 l330 112 6 -25 c4
-14 7 -67 8 -116 2 -156 -40 -266 -141 -371 -32 -34 -85 -76 -118 -93 -32 -17
-440 -161 -905 -320 -511 -174 -855 -296 -866 -308 -11 -11 -22 -35 -25 -55
-5 -30 -1 -41 24 -69 23 -25 37 -33 63 -32 19 0 156 42 304 93 149 50 374 127
500 170 127 43 405 138 618 210 213 73 389 131 392 129 2 -2 9 -67 16 -144 14
-169 6 -234 -46 -343 -40 -85 -122 -172 -202 -215 -85 -45 -3678 -1267 -3727
-1267 -53 0 -122 35 -158 80 -50 64 -58 181 -17 260 11 22 207 203 523 485
299 267 511 463 521 482 20 41 11 76 -27 108 -36 31 -77 32 -113 3 -15 -12
-123 -107 -239 -211 -163 -146 -212 -184 -215 -170 -2 10 2 187 8 393 14 408
23 482 82 661 38 116 138 326 209 439 179 287 469 582 760 775 217 143 338
197 815 360 198 68 774 265 1280 438 506 173 923 315 927 316 3 0 5 -41 2 -91z"/>
</g>
</svg>
